<?xml version="1.0" standalone="no"?>
<!DOCTYPE svg PUBLIC "-//W3C//DTD SVG 20010904//EN"
 "http://www.w3.org/TR/2001/REC-SVG-20010904/DTD/svg10.dtd">
<svg version="1.0" xmlns="http://www.w3.org/2000/svg"
 width="708.000000pt" height="200.000000pt" viewBox="0 0 708.000000 200.000000"
 preserveAspectRatio="xMidYMid meet">
<metadata>
Created by potrace 1.13, written by Peter Selinger 2001-2015
</metadata>
<g transform="translate(0.000000,200.000000) scale(0.100000,-0.100000)"
fill="#000000" stroke="none">
<path d="M4115 1990 c-230 -24 -444 -127 -606 -289 -125 -127 -215 -281 -261
-446 -18 -68 -22 -107 -22 -255 -1 -152 2 -186 22 -260 60 -225 213 -442 401
-569 170 -115 352 -171 561 -171 137 0 231 16 349 59 169 62 258 125 443 315
l137 141 148 -150 c197 -201 299 -267 510 -332 82 -25 101 -27 268 -27 155 0
191 3 258 22 286 80 515 270 642 533 109 226 129 473 59 716 -78 272 -261 488
-519 614 -256 124 -517 137 -786 39 -99 -36 -173 -76 -259 -141 -36 -27 -288
-277 -560 -555 -562 -573 -545 -559 -685 -559 -97 1 -152 23 -224 90 -130 121
-134 319 -9 451 68 72 131 98 233 98 107 0 167 -26 239 -106 l54 -59 233 236
c129 130 236 241 238 247 5 15 -124 137 -198 187 -87 59 -210 115 -306 140
-73 19 -239 43 -275 40 -8 -1 -47 -5 -85 -9z m2087 -699 c196 -84 254 -343
113 -509 -62 -74 -178 -119 -274 -108 -102 12 -149 43 -290 188 l-128 132 116
124 c117 124 167 163 244 188 55 18 159 11 219 -15z"/>
<path d="M0 1635 l0 -335 263 -2 262 -3 3 -637 2 -638 345 0 345 0 0 640 0
640 164 0 163 0 217 -310 216 -309 0 -331 0 -330 350 0 350 0 0 328 0 327 248
355 c136 195 274 393 307 440 32 47 120 173 195 280 75 107 139 201 144 208 6
9 -74 12 -386 12 l-393 0 -95 -138 c-239 -344 -365 -521 -370 -521 -3 0 -108
148 -235 329 l-230 330 -932 0 -933 0 0 -335z"/>
</g>
</svg>
